<?xml version="1.0" standalone="no"?>
<!DOCTYPE svg PUBLIC "-//W3C//DTD SVG 20010904//EN"
 "http://www.w3.org/TR/2001/REC-SVG-20010904/DTD/svg10.dtd">
<svg version="1.0" xmlns="http://www.w3.org/2000/svg"
 width="512.000000pt" height="512.000000pt" viewBox="0 0 512.000000 512.000000"
 preserveAspectRatio="xMidYMid meet">
<metadata>
Created by potrace 1.11, written by Peter Selinger 2001-2013
</metadata>
<g transform="translate(0.000000,512.000000) scale(0.100000,-0.100000)"
fill="#000000" stroke="none">
<path d="M2440 5101 c-361 -114 -396 -609 -54 -771 l65 -30 -27 -35 c-14 -19
-50 -46 -79 -59 -51 -25 -85 -68 -85 -108 0 -10 -20 -19 -57 -28 -31 -6 -83
-21 -116 -32 l-59 -19 -23 25 c-67 73 -191 13 -172 -83 5 -23 2 -30 -19 -40
-14 -6 -60 -34 -101 -61 -79 -52 -92 -57 -110 -39 -21 21 -73 21 -109 0 l-34
-21 -109 111 -109 111 23 51 c73 161 34 352 -97 479 -83 80 -187 119 -307 114
-88 -3 -136 -18 -206 -62 -133 -84 -202 -207 -203 -365 -2 -299 321 -508 595
-384 l52 23 93 -92 c144 -144 135 -126 93 -177 -20 -24 -42 -51 -50 -60 -101
-125 -248 -435 -279 -589 -3 -14 -7 -34 -9 -45 -3 -11 -10 -48 -17 -82 -15
-74 -39 -117 -82 -143 l-33 -20 -18 48 c-55 140 -198 244 -352 255 -192 14
-374 -114 -429 -300 -20 -72 -15 -192 12 -261 90 -231 366 -333 583 -216 73
40 141 112 178 188 l32 67 29 -21 c16 -11 37 -35 48 -53 19 -30 25 -51 38
-122 41 -234 150 -480 301 -682 32 -43 64 -85 71 -95 11 -15 -1 -30 -99 -127
l-111 -110 -41 21 c-23 11 -73 26 -111 32 -287 49 -537 -201 -488 -487 26
-151 135 -281 277 -332 65 -24 191 -28 254 -9 213 63 344 272 305 486 -7 36
-22 84 -33 106 l-20 39 110 112 c60 61 111 111 113 111 2 0 14 -9 27 -21 46
-40 184 -136 256 -178 141 -81 337 -152 515 -187 99 -19 140 -40 168 -86 l20
-33 -34 -11 c-161 -56 -282 -240 -269 -411 11 -149 100 -285 227 -347 269
-131 577 47 600 347 12 158 -89 325 -240 397 l-64 31 20 29 c29 40 75 66 145
80 320 62 530 161 811 382 8 5 49 -30 122 -103 l111 -111 -20 -40 c-11 -22
-26 -70 -33 -106 -47 -260 154 -501 417 -500 248 2 444 212 424 456 -12 156
-102 284 -247 355 -61 30 -72 32 -175 32 -98 0 -116 -3 -167 -27 l-57 -26
-111 110 c-97 98 -109 113 -98 128 7 10 38 51 70 91 65 85 132 196 177 293 32
69 87 220 95 259 27 130 56 240 70 262 22 34 80 70 84 52 2 -6 15 -35 28 -64
61 -124 199 -217 340 -227 207 -14 397 135 435 342 25 133 -16 263 -114 363
-149 151 -388 164 -556 29 -47 -39 -146 -180 -125 -180 3 0 1 -7 -6 -15 -10
-13 -16 -11 -44 10 -46 35 -62 72 -92 209 -55 254 -168 494 -319 681 -23 28
-44 55 -48 61 -4 7 39 57 104 123 l111 111 38 -20 c88 -45 206 -53 309 -21
305 95 401 479 176 703 -89 88 -213 135 -333 125 -179 -14 -320 -128 -377
-306 -25 -78 -18 -207 17 -283 l26 -57 -110 -111 c-98 -97 -113 -109 -129 -98
-9 7 -44 34 -76 60 -76 59 -222 148 -310 189 -96 44 -282 103 -388 124 -54 10
-105 26 -127 41 -39 25 -79 84 -57 84 25 0 117 52 155 88 47 43 104 124 104
146 0 8 4 17 9 21 9 5 23 88 26 150 0 17 -5 55 -13 84 -36 144 -130 246 -277
302 -52 19 -184 19 -245 0z"/>
</g>
</svg>
