<svg id="Capa_1" enable-background="new 0 0 512 512" height="512" viewBox="0 0 512 512" width="512" xmlns="http://www.w3.org/2000/svg"><g id="XMLID_1391_"><circle id="XMLID_1544_" cx="190" cy="190" fill="#a0c8ff" r="180"/><g fill="#b7eabc"><path id="XMLID_83_" d="m136.819 292.613c-5.451-6.08-13.749-8.764-21.729-7.027l-67.019 15.127c22.083 28.269 52.427 49.766 87.402 60.871l6.988-51.147c.766-6.477-1.289-12.969-5.642-17.824z"/><path id="XMLID_2850_" d="m235.765 107.189c0 6.769-3.89 12.936-10 15.851l-1.191.568c-17.237 8.224-28.216 25.619-28.225 44.717 0 .318 0 .635-.001.953-.009 19.039 11.222 36.291 28.844 44.083l1.376.609c10.432 4.613 17.157 14.949 17.147 26.355l-.021 24.176 76.719 49.563c30.727-32.29 49.587-75.974 49.587-124.064 0-39.169-12.518-75.411-33.762-104.958h-78.326c-12.232 0-22.147 9.915-22.147 22.147z"/><path id="XMLID_1542_" d="m10 190c0 17.296 2.446 34.02 6.999 49.852h50.209c21.424 0 42.276-6.922 59.447-19.734 18.32-13.669 21.96-39.664 8.097-57.839-5.459-7.158-8.416-15.911-8.416-24.913 0-15.436 8.229-29.7 21.593-37.427 13.805-7.982 22.307-22.719 22.307-38.665v-50.189c-90.111 9.843-160.236 86.184-160.236 178.915z"/></g><g id="XMLID_68_"><path id="XMLID_73_" d="m469.938 502c-17.708 0-32.062-14.355-32.062-32.062v-71.25h64.124v71.25c0 17.707-14.355 32.062-32.062 32.062z" fill="#ffd88e"/><path id="XMLID_72_" d="m469.938 502h-239.876c-17.707 0-32.062-14.355-32.062-32.062v-260.063h239.875v260.062c0 17.708 14.355 32.063 32.063 32.063z" fill="#fff"/></g><g id="XMLID_2548_"><circle id="XMLID_2561_" cx="317.938" cy="305.875" fill="#ff9171" r="36"/><g id="XMLID_194_"><path id="XMLID_638_" d="m502 388.688h-54.125v-178.813c0-5.523-4.477-10-10-10h-58.136c.169-3.29.261-6.588.261-9.875 0-40.831-12.949-78.694-34.952-109.701-.413-.765-.929-1.464-1.519-2.092-34.586-47.368-90.52-78.207-153.529-78.207-49.708 0-96.716 19.068-132.365 53.692-3.962 3.849-4.054 10.18-.206 14.141 3.849 3.964 10.179 4.055 14.141.207 24.67-23.961 55.421-39.586 88.666-45.441v38.674c0 12.336-6.634 23.834-17.313 30.008-16.399 9.482-26.587 27.141-26.587 46.084 0 11.128 3.717 22.13 10.465 30.979 5.072 6.65 7.227 14.875 6.067 23.157-1.159 8.283-5.49 15.601-12.194 20.602-15.338 11.445-34.327 17.748-53.467 17.748h-42.478c-3.083-12.787-4.729-26.13-4.729-39.851 0-17.072 2.521-33.918 7.491-50.071 1.625-5.278-1.338-10.875-6.616-12.499-5.28-1.628-10.875 1.338-12.499 6.616-5.558 18.06-8.376 36.887-8.376 55.954 0 104.098 84.152 188.896 188 189.975v89.963c0 23.193 18.869 42.062 42.062 42.062h239.875c23.194 0 42.063-18.869 42.063-42.062v-71.25c0-5.523-4.477-10-10-10zm-142.288-188.813h-137.924c-9.718-7.195-15.444-18.435-15.438-30.597l.001-.948c.007-15.157 8.851-29.169 22.532-35.697l1.19-.567c9.534-4.549 15.694-14.313 15.694-24.877 0-3.244 1.263-6.295 3.558-8.589 2.294-2.294 5.344-3.558 8.588-3.558h73.032c18.337 27.132 29.055 59.817 29.055 94.958 0 3.288-.1 6.587-.288 9.875zm-293.447 106.571 50.954-11.088c4.454-.974 9.111.536 12.156 3.932 2.435 2.715 3.585 6.349 3.156 9.971l-4.618 39c-23.566-9.279-44.57-23.679-61.648-41.815zm81.04 48.122 5.086-42.956c1.105-9.325-1.857-18.684-8.126-25.674-7.837-8.743-19.834-12.622-31.301-10.124l-61.014 13.277c-8.643-12.007-15.757-25.183-21.062-39.24h36.32c23.421 0 46.657-7.713 65.427-21.719 11.018-8.221 18.135-20.245 20.041-33.858s-1.636-27.13-9.972-38.06c-4.106-5.384-6.368-12.078-6.368-18.85 0-11.826 6.36-22.85 16.598-28.77 16.84-9.736 27.302-27.869 27.302-47.322v-40.985c3.24-.183 6.495-.287 9.764-.287 49.449 0 94.028 21.228 125.12 55.042h-57.209c-8.586 0-16.659 3.344-22.731 9.416-6.072 6.071-9.416 14.145-9.415 22.73 0 2.898-1.69 5.578-4.307 6.826l-1.19.568c-20.594 9.827-33.907 30.92-33.918 53.727l-.001.964c-.005 11.189 3.163 21.868 8.925 30.987-4.197 1.188-7.275 5.038-7.275 9.614v150.1c-14.033-.162-27.666-2.023-40.694-5.406zm60.695 115.37v-250.063h219.875v250.062c0 8.086 2.299 15.644 6.27 22.062h-204.083c-12.165.001-22.062-9.896-22.062-22.061zm284 0c0 12.165-9.897 22.062-22.062 22.062s-22.062-9.897-22.062-22.062v-61.25h44.124z"/><path id="XMLID_679_" d="m268.373 396h-25.271c-5.523 0-10 4.478-10 10s4.477 10 10 10h25.271c5.523 0 10-4.478 10-10s-4.477-10-10-10z"/><path id="XMLID_685_" d="m393.102 396h-84c-5.523 0-10 4.478-10 10s4.477 10 10 10h84c5.523 0 10-4.478 10-10s-4.477-10-10-10z"/><path id="XMLID_687_" d="m268.373 440.344h-25.271c-5.523 0-10 4.477-10 10 0 5.522 4.477 10 10 10h25.271c5.523 0 10-4.478 10-10 0-5.523-4.477-10-10-10z"/><path id="XMLID_688_" d="m393.102 440.344h-84c-5.523 0-10 4.477-10 10 0 5.522 4.477 10 10 10h84c5.523 0 10-4.478 10-10 0-5.523-4.477-10-10-10z"/><path id="XMLID_689_" d="m36.48 105.99c2.63 0 5.21-1.07 7.07-2.931 1.86-1.87 2.93-4.439 2.93-7.069 0-2.631-1.07-5.21-2.93-7.07s-4.44-2.93-7.07-2.93-5.21 1.069-7.07 2.93c-1.86 1.86-2.93 4.439-2.93 7.07 0 2.63 1.07 5.21 2.93 7.069 1.86 1.861 4.44 2.931 7.07 2.931z"/><path id="XMLID_1441_" d="m307.938 350.767v11.108c0 5.522 4.477 10 10 10s10-4.478 10-10v-11.108c5.285-1.177 10.228-3.264 14.659-6.091l7.868 7.867c1.953 1.952 4.512 2.929 7.071 2.929s5.119-.977 7.071-2.929c3.905-3.906 3.905-10.237 0-14.143l-7.867-7.867c2.826-4.432 4.914-9.374 6.091-14.66h11.108c5.523 0 10-4.478 10-10s-4.477-10-10-10h-11.109c-1.177-5.285-3.264-10.228-6.091-14.66l7.867-7.867c3.905-3.905 3.906-10.236 0-14.143-3.904-3.903-10.236-3.904-14.142 0l-7.868 7.867c-4.432-2.826-9.374-4.914-14.659-6.091v-11.108c0-5.523-4.477-10-10-10s-10 4.477-10 10v11.108c-5.285 1.177-10.228 3.264-14.659 6.091l-7.867-7.867c-3.905-3.904-10.237-3.904-14.143 0-3.905 3.905-3.905 10.237 0 14.143l7.867 7.867c-2.826 4.431-4.914 9.374-6.09 14.659h-11.108c-5.523 0-10 4.478-10 10s4.477 10 10 10h11.108c1.177 5.285 3.264 10.228 6.09 14.659l-7.867 7.867c-3.905 3.905-3.905 10.237 0 14.143 1.953 1.952 4.512 2.929 7.071 2.929s5.119-.977 7.071-2.929l7.867-7.867c4.433 2.829 9.375 4.917 14.661 6.093zm10-70.892c14.336 0 26 11.663 26 26s-11.664 26-26 26-26-11.663-26-26 11.663-26 26-26z"/></g></g></g></svg>