<svg id="Capa_1" enable-background="new 0 0 512 512" height="40" viewBox="0 0 512 512" width="40" xmlns="http://www.w3.org/2000/svg"><g id="XMLID_2177_"><g id="XMLID_2171_"><g id="XMLID_2196_"><path id="XMLID_1487_" d="m154.127 320.9v-87.281c0-36.482 29.574-66.056 66.056-66.056h35.944 35.944c36.482 0 66.056 29.574 66.056 66.056v87.281z" fill="#a0c8ff"/></g><g id="XMLID_2195_"><path d="m256.127 167.563c22.092 0 40-17.909 40-40v-10c0-22.091-17.909-40-40-40-22.091 0-40 17.909-40 40v10c0 22.091 17.909 40 40 40z" fill="#f2b394"/></g><g id="XMLID_2191_"><path d="m10 398.91v-75.958c0-36.482 29.574-66.056 66.056-66.056h35.944 35.944c36.482 0 66.056 29.574 66.056 66.056v75.958z" fill="#b7eabc"/></g><g id="XMLID_3588_"><path id="XMLID_38_" d="m112 256.896c22.091 0 40-17.909 40-40v-10c0-22.091-17.909-40-40-40-22.091 0-40 17.909-40 40v10c0 22.092 17.909 40 40 40z" fill="#f2b394"/></g><g id="XMLID_2189_"><path id="XMLID_1471_" d="m298 398.91v-75.958c0-36.482 29.574-66.056 66.056-66.056h35.944 35.944c36.482 0 66.056 29.574 66.056 66.056v75.958z" fill="#ffd88e"/></g><g id="XMLID_2188_"><path d="m400 256.896c22.091 0 40-17.909 40-40v-10c0-22.091-17.909-40-40-40-22.091 0-40 17.909-40 40v10c0 22.092 17.909 40 40 40z" fill="#f2b394"/></g><g id="XMLID_2173_"><g id="XMLID_2183_"><circle id="XMLID_5_" cx="256" cy="402" fill="#faf7f5" r="100"/></g><g id="XMLID_2178_"><path id="XMLID_6_" d="m256 302c-55.229 0-100 44.772-100 100s44.771 100 100 100 100-44.772 100-100-44.772-100-100-100zm-42.427 142.427c-18.492-18.492-22.377-46.046-11.682-68.361.051.053.094.11.147.162l79.639 79.639c.085.085.178.155.264.238-22.317 10.7-49.875 6.815-68.368-11.678zm96.595-16.615c-.072-.074-.134-.156-.207-.229l-79.639-79.639c-.041-.041-.087-.075-.128-.116 22.292-10.618 49.776-6.711 68.232 11.746 18.457 18.458 22.364 45.945 11.742 68.238z" fill="#ff5c7d"/></g></g></g><g id="XMLID_2997_"><circle id="XMLID_620_" cx="405.484" cy="66" fill="#ff9171" r="36"/></g><g id="XMLID_1515_"><g id="XMLID_1744_"><circle id="XMLID_602_" cx="106.77" cy="66" fill="#ff9171" r="36"/></g><g id="XMLID_1514_"><path id="XMLID_1518_" d="m439.893 246.999c6.339-8.38 10.107-18.808 10.107-30.102v-10c0-27.57-22.43-50-50-50-21.168 0-39.292 13.228-46.574 31.847-13.123-17.893-33.861-29.869-57.406-31.079 6.339-8.38 10.108-18.808 10.108-30.102v-10c0-27.57-22.43-50-50-50s-50 22.43-50 50v10c0 11.294 3.768 21.722 10.108 30.102-23.645 1.215-44.456 13.289-57.57 31.308-7.223-18.74-25.41-32.076-46.665-32.076-27.57 0-50 22.43-50 50v10c0 11.294 3.768 21.722 10.108 30.102-40.111 2.061-72.109 35.34-72.109 75.953v75.958c0 5.522 4.477 10 10 10h136.237c.612 9.875 2.515 19.569 5.726 28.899 1.798 5.222 7.483 7.994 12.71 6.202 5.223-1.797 7.999-7.487 6.202-12.71-3.235-9.4-4.875-19.258-4.875-29.301 0-49.626 40.374-90 90-90s90 40.374 90 90-40.374 90-90 90c-10.044 0-19.901-1.64-29.3-4.874-5.222-1.797-10.911.978-12.71 6.202-1.797 5.223.979 10.913 6.202 12.71 11.497 3.956 23.544 5.962 35.808 5.962 58.333 0 106.198-45.643 109.777-103.09h136.223c5.522 0 10-4.478 10-10v-75.958c0-40.613-31.998-73.892-72.107-75.953zm-69.893-40.103c0-16.542 13.458-30 30-30s30 13.458 30 30v10c0 16.542-13.458 30-30 30s-30-13.458-30-30zm-143.873-89.334c0-16.542 13.458-30 30-30s30 13.458 30 30v10c0 16.542-13.458 30-30 30s-30-13.458-30-30zm-144.127 89.334c0-16.542 13.458-30 30-30s30 13.458 30 30v10c0 16.542-13.458 30-30 30s-30-13.458-30-30zm64.782 182.014h-126.782v-65.958c0-30.909 25.146-56.056 56.056-56.056h71.889c24.973 0 46.488 16.265 53.593 39.56-29.557 16.914-50.55 47.144-54.756 82.454zm73.065-90.799c-8.638-25.195-29.84-43.906-55.72-49.484v-15.007c0-30.91 25.146-56.057 56.056-56.057h71.889c30.909 0 56.056 25.146 56.056 56.057v14.966c-25.926 5.53-47.286 24.293-55.967 49.528-11.332-3.956-23.498-6.114-36.161-6.114-12.66 0-24.824 2.157-36.153 6.111zm272.153 90.799h-126.782c-4.206-35.307-25.196-65.535-54.747-82.449 7.119-23.267 28.704-39.564 53.585-39.564h71.889c30.909 0 56.056 25.146 56.056 56.056v65.957z"/><path id="XMLID_1527_" d="m302.697 434.461c.1.111.201.221.306.328 1.898 1.949 4.489 3.023 7.164 3.023.542 0 1.087-.044 1.631-.134 3.227-.533 5.99-2.611 7.397-5.564 12.723-26.702 7.218-58.695-13.698-79.611-20.913-20.913-52.902-26.42-79.605-13.703-2.951 1.406-5.028 4.165-5.564 7.391-.535 3.225.539 6.508 2.878 8.791.075.073.15.146.227.215zm-11.343-67.815c11.28 11.28 16.286 27.07 14.15 42.339l-56.49-56.489c15.273-2.136 31.061 2.869 42.34 14.15z"/><path id="XMLID_1530_" d="m286.264 465.123c2.952-1.416 5.025-4.188 5.548-7.42.523-3.231-.568-6.516-2.924-8.79-.106-.103-.215-.203-.326-.304l-79.275-79.275c-.105-.115-.214-.228-.324-.339-2.294-2.293-5.555-3.332-8.756-2.786-3.197.547-5.931 2.61-7.333 5.535-12.814 26.736-7.338 58.786 13.628 79.754 13.415 13.414 31.365 20.487 49.559 20.487 10.245 0 20.569-2.244 30.203-6.862zm-79.747-70.274 56.634 56.634c-15.321 2.204-31.178-2.798-42.507-14.127s-16.327-27.188-14.127-42.507z"/><path id="XMLID_1531_" d="m185.3 462.7c-2.63 0-5.21 1.069-7.07 2.93-1.87 1.86-2.93 4.439-2.93 7.07 0 2.63 1.06 5.21 2.93 7.069 1.86 1.86 4.44 2.931 7.07 2.931s5.21-1.07 7.07-2.931c1.859-1.859 2.93-4.439 2.93-7.069 0-2.631-1.07-5.21-2.93-7.07s-4.44-2.93-7.07-2.93z"/><path id="XMLID_1538_" d="m349.483 76h11.108c1.177 5.285 3.264 10.228 6.091 14.659l-7.867 7.867c-3.905 3.905-3.905 10.237 0 14.143 1.953 1.952 4.512 2.929 7.071 2.929 2.56 0 5.118-.977 7.071-2.929l7.867-7.867c4.432 2.826 9.374 4.914 14.659 6.09v11.108c0 5.522 4.478 10 10 10s10-4.478 10-10v-11.108c5.285-1.177 10.228-3.264 14.659-6.09l7.868 7.867c1.953 1.952 4.512 2.929 7.071 2.929 2.56 0 5.119-.977 7.071-2.929 3.905-3.906 3.905-10.237 0-14.143l-7.868-7.868c2.827-4.431 4.914-9.374 6.09-14.659h11.108c5.522 0 10-4.478 10-10s-4.478-10-10-10h-11.108c-1.177-5.285-3.264-10.228-6.09-14.659l7.868-7.867c3.905-3.905 3.905-10.236 0-14.142-3.905-3.903-10.236-3.904-14.142 0l-7.869 7.867c-4.432-2.826-9.375-4.914-14.66-6.091v-11.107c0-5.523-4.478-10-10-10s-10 4.477-10 10v11.108c-5.285 1.177-10.228 3.264-14.659 6.09l-7.867-7.867c-3.906-3.904-10.236-3.904-14.142 0-3.905 3.905-3.905 10.237 0 14.142l7.867 7.867c-2.826 4.432-4.914 9.374-6.091 14.659h-11.108c-5.522 0-10 4.478-10 10s4.48 10.001 10.002 10.001zm56-36c14.337 0 26 11.663 26 26s-11.663 26-26 26-26-11.663-26-26 11.664-26 26-26z"/><path id="XMLID_1543_" d="m50.77 76h11.108c1.177 5.285 3.264 10.228 6.091 14.66l-7.867 7.867c-3.905 3.905-3.905 10.236 0 14.143 1.953 1.952 4.512 2.929 7.071 2.929s5.118-.977 7.071-2.929l7.868-7.867c4.431 2.826 9.374 4.914 14.659 6.09v11.107c0 5.522 4.478 10 10 10s10-4.478 10-10v-11.108c5.285-1.177 10.228-3.264 14.66-6.091l7.868 7.868c1.953 1.952 4.512 2.929 7.071 2.929 2.56 0 5.118-.977 7.071-2.929 3.905-3.905 3.905-10.237 0-14.143l-7.868-7.868c2.826-4.431 4.913-9.374 6.09-14.659h11.108c5.523 0 10-4.478 10-10s-4.477-10-10-10h-11.108c-1.177-5.285-3.264-10.227-6.09-14.659l7.868-7.868c3.905-3.905 3.905-10.237 0-14.142-3.906-3.904-10.236-3.904-14.143 0l-7.868 7.868c-4.432-2.827-9.374-4.914-14.66-6.091v-11.107c0-5.523-4.478-10-10-10s-10 4.477-10 10v11.108c-5.285 1.177-10.228 3.264-14.659 6.09l-7.868-7.867c-3.904-3.904-10.237-3.904-14.142 0-3.905 3.906-3.905 10.237 0 14.142l7.868 7.867c-2.827 4.432-4.914 9.375-6.091 14.66h-11.108c-5.522 0-10 4.478-10 10s4.477 10 10 10zm56-36c14.337 0 26 11.663 26 26s-11.663 26-26 26-26-11.663-26-26 11.663-26 26-26z"/></g></g></g></svg>