<svg id="Capa_1" enable-background="new 0 0 512 512" height="512" viewBox="0 0 512 512" width="512" xmlns="http://www.w3.org/2000/svg"><g id="XMLID_45_"><g id="XMLID_1397_"><path id="XMLID_1399_" d="m10 53.168h400v448.832h-400z" fill="#cfd3df"/><path id="XMLID_1398_" d="m54 97.168h312v404.832h-312z" fill="#ffd88e"/></g><path id="XMLID_1354_" d="m210.448 217.761h-.895c-17.426 0-31.552-14.126-31.552-31.552v-6.895c0-17.426 14.126-31.552 31.552-31.552h.895c17.426 0 31.552 14.126 31.552 31.552v6.895c0 17.426-14.127 31.552-31.552 31.552z" fill="#f2b394"/><path id="XMLID_1353_" d="m250 363h-80c-22.091 0-40-17.909-40-40v-65.239c0-22.091 17.909-40 40-40h80c22.091 0 40 17.909 40 40v65.239c0 22.091-17.909 40-40 40z" fill="#b7eabc"/><path id="XMLID_1350_" d="m170 318.333v163.667c0 11.046 8.954 20 20 20 11.046 0 20-8.954 20-20v-119 119c0 11.046 8.954 20 20 20 11.046 0 20-8.954 20-20v-163.667z" fill="#a0c8ff"/><circle id="XMLID_1349_" cx="419.5" cy="92.5" fill="#ff5c7d" r="82.5"/><g id="XMLID_245_"><path id="XMLID_258_" d="m450.75 82.5h-21.25v-21.25c0-5.523-4.477-10-10-10s-10 4.477-10 10v21.25h-21.25c-5.523 0-10 4.477-10 10s4.477 10 10 10h21.25v21.25c0 5.523 4.477 10 10 10s10-4.477 10-10v-21.25h21.25c5.523 0 10-4.477 10-10s-4.477-10-10-10z"/><path id="XMLID_276_" d="m112 178.26c-2.63 0-5.21 1.07-7.07 2.93s-2.93 4.44-2.93 7.07c0 2.64 1.07 5.21 2.93 7.07s4.44 2.93 7.07 2.93 5.21-1.07 7.07-2.93 2.93-4.44 2.93-7.07-1.07-5.21-2.93-7.07-4.44-2.93-7.07-2.93z"/><path id="XMLID_277_" d="m112 132.5c-2.63 0-5.21 1.07-7.07 2.93s-2.93 4.44-2.93 7.07 1.07 5.21 2.93 7.07 4.44 2.93 7.07 2.93 5.21-1.07 7.07-2.93 2.93-4.44 2.93-7.07-1.07-5.21-2.93-7.07-4.44-2.93-7.07-2.93z"/><path id="XMLID_3132_" d="m112 451.88c-2.63 0-5.21 1.07-7.07 2.93s-2.93 4.44-2.93 7.07 1.07 5.21 2.93 7.07 4.44 2.93 7.07 2.93 5.21-1.07 7.07-2.93 2.93-4.44 2.93-7.07-1.07-5.21-2.93-7.07-4.44-2.93-7.07-2.93z"/><path id="XMLID_3133_" d="m112 406.12c-2.63 0-5.21 1.07-7.07 2.93s-2.93 4.44-2.93 7.07 1.07 5.211 2.93 7.07c1.86 1.86 4.44 2.93 7.07 2.93s5.21-1.07 7.07-2.93 2.93-4.44 2.93-7.07-1.07-5.21-2.93-7.07-4.44-2.93-7.07-2.93z"/><path id="XMLID_3134_" d="m308.9 198.26c2.63 0 5.2-1.07 7.07-2.93 1.86-1.86 2.92-4.44 2.92-7.07s-1.06-5.21-2.92-7.07c-1.87-1.86-4.44-2.93-7.07-2.93-2.64 0-5.21 1.07-7.08 2.93-1.86 1.86-2.92 4.44-2.92 7.07s1.06 5.21 2.92 7.07 4.44 2.93 7.08 2.93z"/><path id="XMLID_3135_" d="m308.9 152.5c2.63 0 5.2-1.07 7.07-2.93 1.86-1.86 2.92-4.44 2.92-7.07s-1.06-5.21-2.92-7.07c-1.87-1.86-4.44-2.93-7.07-2.93-2.64 0-5.21 1.07-7.08 2.93-1.86 1.86-2.93 4.44-2.93 7.07s1.07 5.21 2.93 7.07c1.87 1.86 4.44 2.93 7.08 2.93z"/><path id="XMLID_3138_" d="m308.9 451.88c-2.64 0-5.21 1.07-7.08 2.93-1.86 1.86-2.92 4.44-2.92 7.07s1.06 5.21 2.92 7.07 4.44 2.93 7.08 2.93c2.63 0 5.21-1.07 7.07-2.93s2.93-4.44 2.93-7.07-1.07-5.21-2.93-7.07c-1.87-1.86-4.44-2.93-7.07-2.93z"/><path id="XMLID_3139_" d="m308.9 426.12c2.63 0 5.2-1.07 7.07-2.93 1.86-1.86 2.92-4.44 2.92-7.07s-1.06-5.21-2.92-7.07c-1.87-1.86-4.44-2.93-7.07-2.93-2.64 0-5.22 1.07-7.08 2.93s-2.92 4.44-2.92 7.07 1.06 5.211 2.92 7.07c1.86 1.86 4.44 2.93 7.08 2.93z"/><path id="XMLID_3142_" d="m512 92.5c0-51.005-41.495-92.5-92.5-92.5-32.876 0-61.779 17.254-78.186 43.168h-331.314c-5.523 0-10 4.477-10 10v448.832c0 5.523 4.477 10 10 10h400c5.523 0 10-4.477 10-10v-317.006c50.775-.271 92-41.656 92-92.494zm-324 93.709v-6.895c0-11.884 9.668-21.553 21.552-21.553h.896c11.884 0 21.552 9.669 21.552 21.553v6.895c0 11.884-9.669 21.552-21.552 21.552h-.896c-11.884 0-21.552-9.668-21.552-21.552zm62 41.552c16.542 0 30 13.458 30 30v65.239c0 13.036-8.361 24.152-20 28.28v-73.28c0-5.523-4.477-10-10-10s-10 4.477-10 10v30.333h-60v-30.333c0-5.523-4.477-10-10-10s-10 4.477-10 10v73.28c-11.639-4.128-20-15.243-20-28.28v-65.239c0-16.542 13.458-30 30-30zm-70 254.239v-153.667h60v153.667c0 5.514-4.486 10-10 10s-10-4.486-10-10v-119c0-5.523-4.477-10-10-10s-10 4.477-10 10v119c0 5.514-4.486 10-10 10s-10-4.486-10-10zm78.28 10c1.11-3.13 1.72-6.494 1.72-10v-110.006c22.795-4.646 40-24.847 40-48.994v-65.239c0-27.57-22.43-50-50-50h-4.038c3.83-6.288 6.038-13.667 6.038-21.552v-6.895c0-22.912-18.64-41.553-41.552-41.553h-.896c-22.912 0-41.552 18.641-41.552 41.553v6.895c0 7.885 2.208 15.264 6.038 21.552h-4.038c-27.57 0-50 22.43-50 50v65.239c0 24.147 17.205 44.348 40 48.994v110.006c0 3.506.61 6.87 1.72 10h-97.72v-146.005c0-5.523-4.477-10-10-10s-10 4.477-10 10v146.005h-24v-428.832h311.799c-2.553 7.614-4.165 15.655-4.641 24h-273.158c-5.523 0-10 4.477-10 10v158.827c0 5.523 4.477 10 10 10s10-4.477 10-10v-148.827h264.167c3.286 20.536 13.359 38.832 27.833 52.521v332.311zm117.72 0v-317.889c7.451 3.988 15.513 6.97 24 8.799v309.09zm43.5-327c-39.977 0-72.5-32.523-72.5-72.5s32.523-72.5 72.5-72.5 72.5 32.523 72.5 72.5-32.523 72.5-72.5 72.5z"/><path id="XMLID_3148_" d="m54 291c-2.63 0-5.21 1.06-7.07 2.92s-2.93 4.44-2.93 7.08c0 2.63 1.07 5.21 2.93 7.07s4.44 2.93 7.07 2.93 5.21-1.07 7.07-2.93 2.93-4.44 2.93-7.07c0-2.64-1.07-5.21-2.93-7.08-1.86-1.86-4.44-2.92-7.07-2.92z"/></g></g></svg>