<svg id="Capa_1" enable-background="new 0 0 512 512" height="40" viewBox="0 0 512 512" width="40" xmlns="http://www.w3.org/2000/svg"><g><g><path d="m512 256c0 141.387-512 141.387-512 0s114.613-256 256-256 256 114.613 256 256zm0 0" fill="#f85e95"/><path d="m512 256c0 26.051-3.891 51.191-11.129 74.871-5.031 16.469-11.672 32.231-19.75 47.109-8.25 15.2-441.992 15.2-450.23 0-3.289-6.031-6.332-12.21-9.121-18.531-14-31.629-21.77-66.629-21.77-103.449 0-46.219 12.25-89.57 33.68-127 44.121 77.07 127.16 129 222.32 129s178.211-51.93 222.32-129c21.43 37.43 33.68 80.781 33.68 127zm0 0" fill="#e02a73"/><path d="m481.262 377.699c-7.16 13.223-15.434 25.742-24.723 37.43-8.437 10.633-17.719 20.57-27.719 29.723-45.539 41.699-300.101 41.699-345.64 0-10-9.153-19.282-19.09-27.719-29.723-9.289-11.688-17.563-24.207-24.723-37.43zm0 0" fill="#a10956"/></g><g><path d="m377.851 255.991c0-67.189-54.662-121.851-121.851-121.851l-81.234 289.488h203.085z" fill="#adade8"/><path d="m134.149 255.991v167.637h121.851v-289.488c-67.189 0-121.851 54.662-121.851 121.851z" fill="#71edff"/><path d="m333.542 255.991c0-42.757-34.785-77.542-77.542-77.542l-73.849 245.179h151.391z" fill="#9d8cd7"/><path d="m178.458 255.991v167.637h77.542v-245.179c-42.757 0-77.542 34.785-77.542 77.542z" fill="#adade8"/><path d="m400.006 401.474h-144.006l-73.849 66.464h217.855z" fill="#8d60c7"/><path d="m111.994 401.474h144.006v66.464h-144.006z" fill="#9d8cd7"/><path d="m289.232 244.914h-33.232l-22.155 11.077 22.155 11.077h33.232z" fill="#5b3fbc"/><path d="m222.768 244.914h33.232v22.155h-33.232z" fill="#7f4dc0"/><path d="m289.232 289.223h-33.232l-22.155 11.077 22.155 11.078h33.232z" fill="#5b3fbc"/><path d="m222.768 289.223h33.232v22.155h-33.232z" fill="#7f4dc0"/><g fill="#adade8"><path d="m84.193 445.783c45.426 41.148 105.687 66.217 171.807 66.217v-66.217z"/><path d="m256 445.783v66.217c66.12 0 126.381-25.069 171.806-66.217z"/></g></g></g></svg>