<?xml version="1.0" ?><svg id="Layer_1_1_" style="enable-background:new 0 0 64 64;" version="1.1" viewBox="0 0 64 64" xml:space="preserve" xmlns="http://www.w3.org/2000/svg" xmlns:xlink="http://www.w3.org/1999/xlink"><path d="M42.082,35c-0.085-0.27-0.194-0.527-0.29-0.792L41,35H42.082z" style="fill:#2EC200;"/><path d="M13.536,6.464C12.631,5.56,11.381,5,10,5C8.619,5,7.369,5.56,6.464,6.464C5.56,7.369,5,8.619,5,10  c0,1.381,0.56,2.631,1.464,3.536C7.369,14.44,8.619,15,10,15c1.381,0,2.631-0.56,3.536-1.464C14.44,12.631,15,11.381,15,10  C15,8.619,14.44,7.369,13.536,6.464z" style="fill:#D64528;"/><path d="M13.536,10.536C12.631,11.44,11.381,12,10,12c-1.381,0-2.631-0.56-3.536-1.464  c-0.56-0.56-0.965-1.262-1.21-2.036C5.104,8.976,5,9.474,5,10c0,1.381,0.56,2.631,1.464,3.536C7.369,14.44,8.619,15,10,15  c1.381,0,2.631-0.56,3.536-1.464C14.44,12.631,15,11.381,15,10c0-0.526-0.104-1.024-0.254-1.5  C14.501,9.273,14.095,9.976,13.536,10.536z" style="fill:#C43F25;"/><circle cx="8" cy="8" r="1" style="fill:#ED5D40;"/><path d="M57.536,10.464C56.631,9.56,55.381,9,54,9c-1.381,0-2.631,0.56-3.536,1.464  C49.56,11.369,49,12.619,49,14c0,1.381,0.56,2.631,1.464,3.536C51.369,18.44,52.619,19,54,19c1.381,0,2.631-0.56,3.536-1.464  C58.44,16.631,59,15.381,59,14C59,12.619,58.44,11.369,57.536,10.464z" style="fill:#D64528;"/><path d="M57.536,14.536C56.631,15.44,55.381,16,54,16c-1.381,0-2.631-0.56-3.536-1.464  c-0.56-0.56-0.965-1.262-1.21-2.036C49.104,12.976,49,13.474,49,14c0,1.381,0.56,2.631,1.464,3.536C51.369,18.44,52.619,19,54,19  c1.381,0,2.631-0.56,3.536-1.464C58.44,16.631,59,15.381,59,14c0-0.526-0.104-1.024-0.254-1.5  C58.501,13.273,58.095,13.976,57.536,14.536z" style="fill:#C43F25;"/><circle cx="52" cy="12" r="1" style="fill:#ED5D40;"/><path d="M57.536,50.464C56.631,49.56,55.381,49,54,49c-1.381,0-2.631,0.56-3.536,1.464  C49.56,51.369,49,52.619,49,54c0,1.381,0.56,2.631,1.464,3.536C51.369,58.44,52.619,59,54,59c1.381,0,2.631-0.56,3.536-1.464  C58.44,56.631,59,55.381,59,54C59,52.619,58.44,51.369,57.536,50.464z" style="fill:#D64528;"/><path d="M57.536,54.536C56.631,55.44,55.381,56,54,56c-1.381,0-2.631-0.56-3.536-1.464  c-0.56-0.56-0.965-1.262-1.21-2.036C49.104,52.976,49,53.474,49,54c0,1.381,0.56,2.631,1.464,3.536C51.369,58.44,52.619,59,54,59  c1.381,0,2.631-0.56,3.536-1.464C58.44,56.631,59,55.381,59,54c0-0.526-0.104-1.024-0.254-1.5  C58.501,53.273,58.095,53.976,57.536,54.536z" style="fill:#C43F25;"/><circle cx="52" cy="52" r="1" style="fill:#ED5D40;"/><circle cx="23" cy="41" r="20" style="fill:#4A81D4;"/><path d="M29.025,37.5c0,1.381,1.119,2.5,2.5,2.5H42.95c-0.086-1.732-0.369-3.411-0.868-5H31.525  C30.145,35,29.025,36.119,29.025,37.5z" style="fill:#69A43E;"/><path d="M18,56h-0.5c-1.381,0-2.5-1.119-2.5-2.5c0-1.381,1.119-2.5,2.5-2.5H18h11.99c2.209,0,4-1.791,4-4  c-0.243-1.696-1.701-3-3.465-3h-20.5c-1.71,0-3.086-1.431-2.996-3.161C7.114,39.216,8.571,38,10.195,38h2.83  c1.215,0,2.176-1.083,1.973-2.336C14.838,34.681,13.914,34,12.918,34H4.284C3.468,36.182,3,38.533,3,41c0,11.046,8.954,20,20,20  c5.064,0,9.675-1.897,13.198-5H18z" style="fill:#69A43E;"/><path d="M20.3,24.203C21.185,24.083,22.082,24,23,24c5.062,0,9.67,1.895,13.188,5h2.785  c-3.649-4.85-9.436-8-15.973-8c-0.918,0-1.815,0.083-2.7,0.203c-0.178,0.567-0.274,1.171-0.274,1.797  c0,0.525,0.074,1.032,0.201,1.518C20.253,24.414,20.268,24.305,20.3,24.203z" style="fill:#9DD975;"/><path d="M38.973,29c-3.649-4.85-9.436-8-15.973-8c-0.918,0-1.815,0.083-2.7,0.203l0,0  c-0.178,0.567-0.274,1.171-0.274,1.797c0,3.314,2.686,6,6,6H38.973z" style="fill:#69A43E;"/><path d="M23,62c6.882,0,12.983-3.343,16.816-8.474l2.737,1.369l0.895-1.789l-2.504-1.252C42.87,48.681,44,44.975,44,41  c0-2.282-0.378-4.474-1.054-6.532l9.761-9.761l-1.414-1.414l-9.139,9.139C39.814,27.224,35.418,23.149,30,21.225V10  c0-0.552-0.448-1-1-1h-9v2h8v9.627C26.394,20.232,24.726,20,23,20C11.42,20,2,29.42,2,41S11.42,62,23,62z M35.8,55H17.525  c-0.827,0-1.5-0.673-1.5-1.5s0.673-1.5,1.5-1.5h13c1.31,0,2.48-0.572,3.303-1.468L38,52.618C37.336,53.475,36.599,54.269,35.8,55z   M39.707,37.707l1.625-1.625C41.586,37.031,41.787,38,41.893,39H31.525c-0.827,0-1.5-0.673-1.5-1.5s0.673-1.5,1.5-1.5h7.061  l-0.293,0.293L39.707,37.707z M28,22.69V26h2v-2.647c2.607,1.038,4.926,2.636,6.818,4.647H26.025c-2.757,0-5-2.243-5-5  c0-0.306,0.036-0.607,0.091-0.905C21.736,22.034,22.364,22,23,22C24.733,22,26.404,22.253,28,22.69z M19.07,22.414  c-0.016,0.195-0.044,0.389-0.044,0.586c0,3.86,3.14,7,7,7h12.438c0.871,1.221,1.602,2.544,2.168,3.955L40.586,34h-9.061  c-1.93,0-3.5,1.57-3.5,3.5s1.57,3.5,3.5,3.5H42c0,3.654-1.054,7.057-2.849,9.957l-4.336-2.168c0.124-0.411,0.211-0.838,0.211-1.289  c0-2.481-2.019-4.5-4.5-4.5h-20.5c-1.103,0-2-0.897-2-2s0.897-2,2-2h3c1.654,0,3-1.346,3-3s-1.346-3-3-3H5.79  C8.282,27.663,13.167,23.661,19.07,22.414z M4.986,35h8.039c0.551,0,1,0.449,1,1s-0.449,1-1,1h-3c-2.206,0-4,1.794-4,4s1.794,4,4,4  h20.5c1.378,0,2.5,1.122,2.5,2.5c0,0.129-0.019,0.252-0.038,0.376l-3.54-1.77l-0.895,1.789l3.363,1.681  C31.518,49.843,31.04,50,30.525,50h-13c-1.93,0-3.5,1.57-3.5,3.5s1.57,3.5,3.5,3.5h15.68c-2.952,1.89-6.448,3-10.206,3  C12.523,60,4,51.477,4,41C4,38.902,4.355,36.889,4.986,35z"/><path d="M5.115,13.471l-0.822,0.822l1.414,1.414l0.822-0.822C7.251,15.4,8.091,15.756,9,15.91V18h2v-2.09  c0.909-0.154,1.749-0.51,2.471-1.025l0.822,0.822l1.414-1.414l-0.822-0.822C15.4,12.749,15.756,11.909,15.91,11H18V9h-2.09  c-0.154-0.909-0.51-1.749-1.025-2.471l0.822-0.822l-1.414-1.414l-0.822,0.822C12.749,4.6,11.909,4.244,11,4.09V2H9v2.09  C8.091,4.244,7.251,4.6,6.529,5.115L5.707,4.293L4.293,5.707l0.822,0.822C4.6,7.251,4.244,8.091,4.09,9H2v2h2.09  C4.244,11.909,4.6,12.749,5.115,13.471z M6,10c0-2.206,1.794-4,4-4s4,1.794,4,4s-1.794,4-4,4S6,12.206,6,10z"/><rect height="2" width="1" x="8" y="8"/><rect height="2" width="1" x="11" y="10"/><path d="M62,54.999l-0.001-2l-2.088,0.001c-0.149-0.894-0.498-1.735-1.024-2.472l1.477-1.477l-1.414-1.414l-1.477,1.477  c-0.738-0.527-1.579-0.875-2.473-1.024v-1.16h-2v1.16c-0.894,0.149-1.735,0.498-2.473,1.024l-1.477-1.477l-1.414,1.414l1.477,1.477  c-0.527,0.738-0.875,1.579-1.024,2.473H46v2h2.089c0.149,0.894,0.498,1.735,1.024,2.473l-1.477,1.477l1.414,1.414l1.477-1.477  c0.738,0.527,1.579,0.875,2.473,1.024v1.16h2v-1.16c0.894-0.149,1.735-0.498,2.473-1.024l1.477,1.477l1.414-1.414l-1.477-1.477  c0.527-0.738,0.875-1.579,1.024-2.474L62,54.999z M51.171,51.171c0.78-0.78,1.804-1.169,2.829-1.169s2.049,0.39,2.829,1.169  c1.56,1.56,1.56,4.098,0,5.657s-4.098,1.56-5.657,0S49.612,52.731,51.171,51.171z"/><rect height="1" transform="matrix(0.7071 -0.7071 0.7071 0.7071 -21.2212 53.2323)" width="2" x="52.647" y="51.732"/><rect height="1" transform="matrix(0.7071 -0.7071 0.7071 0.7071 -23.5139 54.7677)" width="2" x="53.354" y="55.268"/><path d="M49.113,17.473l-1.477,1.477l1.414,1.414l1.477-1.477c0.738,0.527,1.579,0.875,2.473,1.024v1.16h2v-1.16  c0.894-0.149,1.735-0.498,2.473-1.024l1.477,1.477l1.414-1.414l-1.477-1.477c0.527-0.738,0.875-1.579,1.024-2.473h1.16v-2h-1.16  c-0.149-0.894-0.498-1.735-1.024-2.473l1.477-1.477L58.95,7.636l-1.477,1.477C56.735,8.586,55.894,8.238,55,8.089v-1.16h-2v1.16  c-0.894,0.149-1.735,0.498-2.473,1.024L49.05,7.636L47.636,9.05l1.477,1.477c-0.527,0.738-0.875,1.579-1.024,2.473h-1.16v2h1.16  C48.238,15.894,48.586,16.735,49.113,17.473z M56.829,16.829c-1.56,1.56-4.098,1.56-5.657,0s-1.56-4.098,0-5.657  c0.78-0.78,1.804-1.169,2.829-1.169s2.049,0.39,2.829,1.169C58.388,12.731,58.388,15.269,56.829,16.829z"/><rect height="2" transform="matrix(0.7071 -0.7071 0.7071 0.7071 5.1491 41.1379)" width="1" x="51.732" y="13.354"/><rect height="2" transform="matrix(0.7071 -0.7071 0.7071 0.7071 6.6844 43.4306)" width="1" x="55.268" y="12.647"/></svg>